<svg xmlns="http://www.w3.org/2000/svg" viewBox="0 0 149.18 39.4"><defs><style>.cls-1{fill:#fff;}</style></defs><g id="Layer_2" data-name="Layer 2"><g id="Layer_1-2" data-name="Layer 1"><path class="cls-1" d="M100.45,39.4c-2-5.11-.31-7.87,5.21-8,7.27-.12,14.54,0,21.82-.05,8.28-.07,13.43-4.73,13.3-11.92-.12-6.88-5.27-11.32-13.36-11.39C120.14,8,112.87,8.15,105.6,8c-5.55-.11-7.19-2.8-5.15-8h33.82c8.24,1.69,13.44,6.38,14.91,14.78v9.85q-2.34,12.45-14.91,14.77Z"/><path class="cls-1" d="M0,34.48a10.05,10.05,0,0,1,6.91-3.06c7-.18,11.25-4.1,12.44-10.91a25.66,25.66,0,0,1,.6-3.86,3.88,3.88,0,0,1,4.13-2.86c2.43.19,2,2.23,2.08,3.76C26.76,28.42,20.52,36,9,38.59c-3,.07-6.3,1.58-9-1.16Z"/><path class="cls-1" d="M72.65,38.6l-29.91-.1c-1.54-4.22-.45-6.1,4.08-6.23,6.78-.19,13.58-.28,20.35,0s11.72-1.72,15.49-7.56c3.59-5.58,9.18-8.22,16-8.16,10.25.09,20.51,0,30.77,0,2.34,0,5-.19,5,3.18s-2.69,3.14-5,3.14c-9.76,0-19.52.07-29.28-.07-5.58-.08-9.9,1.75-12.93,6.59A19.58,19.58,0,0,1,72.65,38.6Z"/><path class="cls-1" d="M42.72.86l29.94,0c8,.44,12.6,5.75,16.76,11.68.84,1.21.44,2-.66,2.13-1.91.28-3.15,3.57-5.56,1.27a12.64,12.64,0,0,1-1.76-2.38,12.53,12.53,0,0,0-11.26-6c-7.62,0-15.24.09-22.86-.1C42.07,7.32,40.78,5.28,42.72.86Z"/><path class="cls-1" d="M30.46,19.62c0-4.9-.08-9.8,0-14.69,0-1.58-.85-4,2.06-4.09a4,4,0,0,1,4.26,3.9c.22,2.27.13,4.57.13,6.85q0,10.29,0,20.57c0,1.63.11,3.29-1,4.67A4,4,0,0,1,32,38.45c-1.79-.35-1.51-1.92-1.52-3.16C30.44,30.07,30.46,24.85,30.46,19.62Z"/></g></g></svg>